<?xml version="1.0" encoding="UTF-8" standalone="no"?><!-- Generator: Gravit.io --><svg xmlns="http://www.w3.org/2000/svg" xmlns:xlink="http://www.w3.org/1999/xlink" style="isolation:isolate" viewBox="0 0 100 100" width="100pt" height="100pt"><defs><clipPath id="_clipPath_mqAzSLhfTsm268Qzwbo6qKJq6TkxUniN"><rect width="100" height="100"/></clipPath></defs><g clip-path="url(#_clipPath_mqAzSLhfTsm268Qzwbo6qKJq6TkxUniN)"><g style="isolation:isolate"><path d=" M 49.709 29.185 Q 52.911 29.142 56.598 29.447 Q 64.065 20.139 65.574 21.286 Q 67.084 22.434 69.655 35.159 Q 77.999 42.096 74.959 58.417 Q 75.082 62.702 74.959 66.17 Q 62.577 70.298 50.373 70.224 L 50.373 70.224 L 50.372 70.159 Q 38.18 70.687 25.653 67.025 Q 25.401 63.564 25.363 59.278 Q 21.716 43.081 29.796 35.838 Q 31.89 23.025 33.355 21.822 Q 34.821 20.619 42.631 29.642 Q 46.42 29.186 49.708 29.119 L 49.709 29.185 Z " fill-rule="evenodd" fill="rgb(152,0,0)" vector-effect="non-scaling-stroke" stroke-width="1" stroke="rgb(0,0,0)" stroke-linejoin="miter" stroke-linecap="square" stroke-miterlimit="3"/></g><path d=" M 60.256 30.302 L 66.76 32.711 Q 67.079 27.639 64.741 23.926 Q 61.241 25.854 60.256 30.302 Z " fill="rgb(255,255,255)" vector-effect="non-scaling-stroke" stroke-width="1" stroke="rgb(0,0,0)" stroke-linejoin="miter" stroke-linecap="square" stroke-miterlimit="3"/><line x1="61.494" y1="25.775" x2="62.718" y2="26.591" vector-effect="non-scaling-stroke" stroke-width="1" stroke="rgb(0,0,0)" stroke-linejoin="miter" stroke-linecap="square" stroke-miterlimit="3"/><path d=" M 39.407 30.263 L 33.287 33.527 Q 32.287 28.544 34.103 24.55 Q 37.831 25.989 39.407 30.263 Z " fill="rgb(255,255,255)" vector-effect="non-scaling-stroke" stroke-width="1" stroke="rgb(0,0,0)" stroke-linejoin="miter" stroke-linecap="square" stroke-miterlimit="3"/><line x1="32.524" y1="29.855" x2="33.34" y2="29.855" vector-effect="non-scaling-stroke" stroke-width="1" stroke="rgb(0,0,0)" stroke-linejoin="miter" stroke-linecap="square" stroke-miterlimit="3"/><line x1="32.524" y1="30.875" x2="33.34" y2="30.263" vector-effect="non-scaling-stroke" stroke-width="1" stroke="rgb(0,0,0)" stroke-linejoin="miter" stroke-linecap="square" stroke-miterlimit="3"/><line x1="32.524" y1="32.711" x2="33.748" y2="31.895" vector-effect="non-scaling-stroke" stroke-width="1" stroke="rgb(0,0,0)" stroke-linejoin="miter" stroke-linecap="square" stroke-miterlimit="3"/><line x1="35.788" y1="31.487" x2="36.196" y2="32.303" vector-effect="non-scaling-stroke" stroke-width="1" stroke="rgb(0,0,0)" stroke-linejoin="miter" stroke-linecap="square" stroke-miterlimit="3"/><line x1="35.38" y1="24.55" x2="34.972" y2="25.367" vector-effect="non-scaling-stroke" stroke-width="1" stroke="rgb(0,0,0)" stroke-linejoin="miter" stroke-linecap="square" stroke-miterlimit="3"/><line x1="37.42" y1="25.979" x2="37.012" y2="27.203" vector-effect="non-scaling-stroke" stroke-width="1" stroke="rgb(0,0,0)" stroke-linejoin="miter" stroke-linecap="square" stroke-miterlimit="3"/><line x1="37.828" y1="27.815" x2="39.052" y2="28.223" vector-effect="non-scaling-stroke" stroke-width="1" stroke="rgb(0,0,0)" stroke-linejoin="miter" stroke-linecap="square" stroke-miterlimit="3"/><line x1="38.236" y1="30.263" x2="38.236" y2="31.487" vector-effect="non-scaling-stroke" stroke-width="1" stroke="rgb(0,0,0)" stroke-linejoin="miter" stroke-linecap="square" stroke-miterlimit="3"/><line x1="37.42" y1="30.671" x2="38.236" y2="31.589" vector-effect="non-scaling-stroke" stroke-width="1" stroke="rgb(0,0,0)" stroke-linejoin="miter" stroke-linecap="square" stroke-miterlimit="3"/><ellipse vector-effect="non-scaling-stroke" cx="49.86502353250174" cy="50.25669710911329" rx="21.829908821339504" ry="15.913391477238136" fill="rgb(0,0,0)"/><mask id="_mask_0z65uG58A6EtwX2LsqWpeR4dNCReWSqI"><path d=" M 52.177 34.432 C 51.417 34.373 50.646 34.343 49.865 34.343 C 49.084 34.343 48.313 34.373 47.554 34.432 Q 45.418 61.308 29.434 55.87 C 32.55 61.887 40.527 66.17 49.865 66.17 C 59.203 66.17 67.18 61.887 70.296 55.87 Q 54.312 61.308 52.177 34.432 Z " fill-rule="evenodd" fill="white" stroke="none"/></mask><path d=" M 52.177 34.432 C 51.417 34.373 50.646 34.343 49.865 34.343 C 49.084 34.343 48.313 34.373 47.554 34.432 Q 45.418 61.308 29.434 55.87 C 32.55 61.887 40.527 66.17 49.865 66.17 C 59.203 66.17 67.18 61.887 70.296 55.87 Q 54.312 61.308 52.177 34.432 Z " fill-rule="evenodd" fill="rgb(235,235,235)"/><path d=" M 52.177 34.432 C 51.417 34.373 50.646 34.343 49.865 34.343 C 49.084 34.343 48.313 34.373 47.554 34.432 Q 45.418 61.308 29.434 55.87 C 32.55 61.887 40.527 66.17 49.865 66.17 C 59.203 66.17 67.18 61.887 70.296 55.87 Q 54.312 61.308 52.177 34.432 Z " fill-rule="evenodd" fill="rgb(235,235,235)" mask="url(#_mask_0z65uG58A6EtwX2LsqWpeR4dNCReWSqI)" vector-effect="non-scaling-stroke" stroke-width="2" stroke="rgb(0,0,0)" stroke-linejoin="miter" stroke-linecap="square" stroke-miterlimit="3"/><path d=" M 31.707 47.808 Q 35.926 46.018 39.868 48.625 Q 37.078 51.307 32.524 48.625 L 31.707 47.808 Z " fill="rgb(255,255,255)" vector-effect="non-scaling-stroke" stroke-width="1" stroke="rgb(0,0,0)" stroke-linejoin="miter" stroke-linecap="square" stroke-miterlimit="3"/><path d=" M 67.207 47.094 Q 62.988 45.304 59.046 47.91 Q 61.836 50.593 66.39 47.91 L 67.207 47.094 Z " fill="rgb(255,255,255)" vector-effect="non-scaling-stroke" stroke-width="1" stroke="rgb(0,0,0)" stroke-linejoin="miter" stroke-linecap="square" stroke-miterlimit="3"/><path d=" M 47.621 52.297 L 50.069 53.521 L 52.517 52.297 Q 50.1 50.808 47.621 52.297 Z " fill="rgb(206,127,113)"/><path d=" M 45.173 56.785 Q 48.432 58.912 50.069 55.561 L 50.069 55.561" fill="none" vector-effect="non-scaling-stroke" stroke-width="1" stroke="rgb(206,127,113)" stroke-linejoin="round" stroke-linecap="round" stroke-miterlimit="3"/><path d=" M 54.965 56.785 Q 51.706 58.912 50.069 55.561 L 50.069 55.561" fill="none" vector-effect="non-scaling-stroke" stroke-width="1" stroke="rgb(206,127,113)" stroke-linejoin="round" stroke-linecap="round" stroke-miterlimit="3"/><line x1="62.31" y1="25.367" x2="62.718" y2="26.591" vector-effect="non-scaling-stroke" stroke-width="1" stroke="rgb(0,0,0)" stroke-linejoin="miter" stroke-linecap="square" stroke-miterlimit="3"/><line x1="63.942" y1="23.926" x2="64.35" y2="24.958" vector-effect="non-scaling-stroke" stroke-width="1" stroke="rgb(0,0,0)" stroke-linejoin="miter" stroke-linecap="square" stroke-miterlimit="3"/><line x1="60.27" y1="28.631" x2="61.494" y2="28.631" vector-effect="non-scaling-stroke" stroke-width="1" stroke="rgb(0,0,0)" stroke-linejoin="miter" stroke-linecap="square" stroke-miterlimit="3"/><line x1="62.31" y1="30.263" x2="61.902" y2="31.487" vector-effect="non-scaling-stroke" stroke-width="1" stroke="rgb(0,0,0)" stroke-linejoin="miter" stroke-linecap="square" stroke-miterlimit="3"/><line x1="63.534" y1="31.079" x2="63.735" y2="32.099" vector-effect="non-scaling-stroke" stroke-width="1" stroke="rgb(0,0,0)" stroke-linejoin="miter" stroke-linecap="square" stroke-miterlimit="3"/><line x1="65.574" y1="27.407" x2="66.799" y2="26.999" vector-effect="non-scaling-stroke" stroke-width="1" stroke="rgb(0,0,0)" stroke-linejoin="miter" stroke-linecap="square" stroke-miterlimit="3"/><line x1="65.166" y1="26.183" x2="66.39" y2="26.183" vector-effect="non-scaling-stroke" stroke-width="1" stroke="rgb(0,0,0)" stroke-linejoin="miter" stroke-linecap="square" stroke-miterlimit="3"/><line x1="66.39" y1="30.671" x2="67.615" y2="31.487" vector-effect="non-scaling-stroke" stroke-width="1" stroke="rgb(0,0,0)" stroke-linejoin="miter" stroke-linecap="square" stroke-miterlimit="3"/><line x1="66.39" y1="31.487" x2="67.615" y2="31.895" vector-effect="non-scaling-stroke" stroke-width="1" stroke="rgb(0,0,0)" stroke-linejoin="miter" stroke-linecap="square" stroke-miterlimit="3"/><line x1="33.287" y1="25.367" x2="34.156" y2="25.979" vector-effect="non-scaling-stroke" stroke-width="1" stroke="rgb(0,0,0)" stroke-linejoin="miter" stroke-linecap="square" stroke-miterlimit="3"/><path d=" M 50.532 67.415 Q 39.495 76.963 43.187 75.167 Q 46.88 73.372 50.532 67.415 Z " fill="none" vector-effect="non-scaling-stroke" stroke-width="1" stroke="rgb(0,0,0)" stroke-linejoin="miter" stroke-linecap="square" stroke-miterlimit="3"/><path d=" M 50.94 77.208 Q 49.879 67.7 50.532 67.415 Q 49.553 67.231 47.676 78.84" fill="none" vector-effect="non-scaling-stroke" stroke-width="1" stroke="rgb(0,0,0)" stroke-linejoin="miter" stroke-linecap="square" stroke-miterlimit="3"/><path d=" M 50.532 67.415 L 52.98 77.616 Q 52.99 66.935 50.532 67.415" fill="none" vector-effect="non-scaling-stroke" stroke-width="1" stroke="rgb(0,0,0)" stroke-linejoin="miter" stroke-linecap="square" stroke-miterlimit="3"/></g></svg>